<svg width="961" height="976" viewBox="0 0 961 976" fill="none" xmlns="http://www.w3.org/2000/svg">
<path fill-rule="evenodd" clip-rule="evenodd" d="M387 917.089C393.8 917.089 350.167 919.756 327.5 921.089C376.5 917.089 378.5 917.089 387 917.089Z" fill="#FFD63E"/>
<path d="M192 666.089L141.5 847.589C136.895 887.312 149.357 907.481 165.15 918.589C168.335 920.83 171.656 922.702 175 924.292C161 924.494 122 951.089 114.5 956.589C108.5 960.99 112.667 964.236 115.5 965.309C112.254 968.211 110.827 970.525 112.5 971.589H124.153C123.386 973.91 126.401 973.577 129.113 973.278C129.985 973.182 130.826 973.089 131.5 973.089C133.855 973.089 142.139 971.755 153 969.775C172.114 966.291 199.208 960.809 216 957.089C216.678 956.936 217.367 956.782 218.063 956.627L218.075 956.624C233.301 953.218 252.368 948.954 249.5 934.589C267.554 931.749 291.913 927.413 311.457 923.935C317.343 922.887 322.792 921.917 327.5 921.089C376.5 917.089 378.5 917.089 387 917.089C393.8 917.089 350.167 919.756 327.5 921.089C343.5 927.089 426.5 934.923 466 938.089V946.089C466 950.889 474.333 952.756 478.5 953.089C479.925 953.279 482.487 953.596 485.822 954.008L485.842 954.01C489.104 954.413 493.102 954.906 497.5 955.462C512.286 957.332 531.579 959.905 542.5 962.089C554.167 964.923 580 971.089 590 973.089C598.8 975.49 601.667 971.686 602 969.484C602.057 969.551 602.114 969.617 602.169 969.683C602.21 969.732 602.251 969.781 602.291 969.829C602.362 969.916 602.432 970.003 602.5 970.089C614.1 971.289 610.333 964.808 607 961.417C608.422 961.717 609.961 961.292 609 958.089C603.973 949.218 576.665 935.793 553.5 925.894C545.329 922.402 537.674 919.349 531.693 917.089C562.616 886.737 550.545 855.689 535.961 819.089L535.646 818.298C534.438 815.268 533.215 812.199 532 809.089C527.832 802.47 524.439 794.249 521.693 785.089C510.997 749.419 510.103 699.521 511.404 674.589C540.605 654.224 630.496 569.539 648 520.089L664 522.089C663.833 519.923 663.2 514.489 662 510.089C671.2 510.889 668.5 503.423 666 499.589C678.078 495.14 674.8 491.902 671.58 488.721C669.734 486.898 667.907 485.093 669 483.089C688.838 483.089 672.899 472.926 661.143 465.429L661.137 465.425C659.858 464.609 658.628 463.825 657.5 463.089V456.089C658.5 454.089 659.6 450.089 656 450.089C586 454.589 560.898 473.589 547.348 485.589C545.578 471.447 548.836 420.169 557.5 395.089C562.7 384.689 559.667 349.756 557.5 333.589C596 303.589 618.5 33.0895 581 2.58948C565.3 15.6455 551.621 47.001 540.721 84.0895C518.645 159.21 507.971 257.849 515 275.589C420.483 209.519 348.281 224.287 311.529 231.804C308.231 232.479 305.218 233.095 302.5 233.589C215.3 138.389 65.8333 105.589 2 101.089C2 118.589 172.5 276.589 259.5 270.589C247 282.589 233 313.089 227 337.089C225 355.489 211.167 381.423 204.5 392.089C184.5 417.089 189 448.089 204.5 484.589L228.126 529.952C254.05 531.04 285.495 536.963 308.5 554.089C312.988 556.417 315.321 558.302 317.153 559.782C320.829 562.753 322.483 564.089 335.5 564.089L331.5 574.589C342.333 580.423 357.5 593.589 333.5 593.589C348.5 604.589 342.5 607.089 331.5 609.589L338 621.589L323 623.089L325 637.089L311.5 633.589C288 647.589 238.5 672.564 192 666.089Z" fill="#FFD63E"/>
<path d="M202 933.089C199.684 932.485 196.946 931.787 194 930.974C187.93 929.298 180.975 927.132 175 924.292M192 666.089L141.5 847.589C136.895 887.312 149.357 907.481 165.15 918.589C168.335 920.83 171.656 922.702 175 924.292M192 666.089C113 655.089 92.5 547.589 192 531.589C200.603 530.266 213.484 529.338 228.126 529.952M192 666.089C238.5 672.564 288 647.589 311.5 633.589L325 637.089L323 623.089L338 621.589L331.5 609.589C342.5 607.089 348.5 604.589 333.5 593.589C357.5 593.589 342.333 580.423 331.5 574.589L335.5 564.089C322.483 564.089 320.829 562.753 317.153 559.782C315.321 558.302 312.988 556.417 308.5 554.089C285.495 536.963 254.05 531.04 228.126 529.952M229.5 532.589L228.126 529.952M259.5 270.589C247 282.589 233 313.089 227 337.089C225 355.489 211.167 381.423 204.5 392.089C184.5 417.089 189 448.089 204.5 484.589L228.126 529.952M259.5 270.589C172.5 276.589 2 118.589 2 101.089C65.8333 105.589 215.3 138.389 302.5 233.589C305.218 233.095 308.231 232.479 311.529 231.804C348.281 224.287 420.483 209.519 515 275.589M259.5 270.589C261.833 267.589 265.5 263.589 268.5 261.589M515 275.589C507.971 257.849 518.645 159.21 540.721 84.0895C551.621 47.001 565.3 15.6455 581 2.58948C618.5 33.0895 596 303.589 557.5 333.589M515 275.589L535.5 295.589M557.5 333.589C559.667 349.756 562.7 384.689 557.5 395.089C548.836 420.169 545.578 471.447 547.348 485.589M557.5 333.589L553 326.589M443.5 587.589C469.9 586.789 548 529.089 548 488.589C547.736 487.973 547.518 486.954 547.348 485.589M547.348 485.589C560.898 473.589 586 454.589 656 450.089C659.6 450.089 658.5 454.089 657.5 456.089V463.089M657.5 476.589V463.089M657.5 463.089C658.628 463.825 659.858 464.609 661.137 465.425M503 679.089C504.31 679.089 507.24 677.493 511.404 674.589M511.404 674.589C540.605 654.224 630.496 569.539 648 520.089L664 522.089C663.833 519.923 663.2 514.489 662 510.089C671.2 510.889 668.5 503.423 666 499.589C678.078 495.14 674.8 491.902 671.58 488.721C669.734 486.898 667.907 485.093 669 483.089C688.838 483.089 672.899 472.926 661.143 465.429M511.404 674.589C510.103 699.521 510.997 749.419 521.693 785.089C524.439 794.249 527.832 802.47 532 809.089C533.215 812.199 534.438 815.268 535.646 818.298M523.5 924.089C525.926 922.092 529.653 919.092 531.693 917.089M531.693 917.089C562.616 886.737 550.545 855.689 535.961 819.089M531.693 917.089C537.674 919.349 545.329 922.402 553.5 925.894C576.665 935.793 603.973 949.218 609 958.089C609.961 961.292 608.422 961.717 607 961.417M563 938.089C568 938.089 594.333 953.423 606 961.089C606.299 961.222 606.646 961.342 607 961.417M607 961.417C610.333 964.808 614.1 971.289 602.5 970.089C602.432 970.003 602.362 969.916 602.291 969.829C602.251 969.781 602.21 969.732 602.169 969.683C602.114 969.617 602.057 969.551 602 969.484M556 946.089C567.258 947.068 593.849 960.026 602 969.484M602 969.484C601.667 971.686 598.8 975.489 590 973.089C580 971.089 554.167 964.923 542.5 962.089C531.579 959.905 512.286 957.332 497.5 955.462C493.102 954.906 489.104 954.413 485.842 954.01M466 946.089C466 950.889 474.333 952.756 478.5 953.089C479.925 953.279 482.487 953.596 485.822 954.008M466 946.089C466 941.289 466 938.089 466 938.089M466 946.089V938.089M466 938.089C482 938.089 511 934.089 513.5 929.089M466 938.089C426.5 934.923 343.5 927.089 327.5 921.089M327.5 921.089C376.5 917.089 378.5 917.089 387 917.089C393.8 917.089 350.167 919.756 327.5 921.089ZM327.5 921.089C322.792 921.917 317.343 922.887 311.457 923.935C291.913 927.413 267.554 931.749 249.5 934.589M225.5 937.589C228.628 937.589 237.967 936.404 249.5 934.589M249.5 934.589C252.368 948.954 233.301 953.218 218.075 956.624M162.5 951.089C153.3 951.889 134.333 962.923 126.5 968.089C125.145 969.653 124.42 970.782 124.153 971.589M124.153 971.589H112.5C110.827 970.525 112.254 968.211 115.5 965.309M124.153 971.589C123.386 973.91 126.401 973.577 129.113 973.278C129.985 973.182 130.826 973.089 131.5 973.089C133.855 973.089 142.139 971.755 153 969.775C172.114 966.291 199.208 960.809 216 957.089C216.678 956.936 217.367 956.782 218.063 956.627M151 944.089C139.867 948.96 122.925 958.672 115.5 965.309M115.5 965.309C112.667 964.236 108.5 960.989 114.5 956.589C122 951.089 161 924.494 175 924.292M645.98 529.589L614.5 576.089M535.961 819.089L535.646 818.298M535.961 819.089C535.856 818.826 535.751 818.562 535.646 818.298M218.075 956.624L218.063 956.627M218.075 956.624C218.071 956.625 218.067 956.626 218.063 956.627M485.842 954.01L485.822 954.008M485.842 954.01C485.836 954.009 485.829 954.008 485.822 954.008M661.143 465.429L661.137 465.425M661.143 465.429C661.141 465.428 661.139 465.426 661.137 465.425" stroke="black" stroke-width="4"/>
<path d="M403 586.589C395.5 589.589 352.667 580.756 336 576.589C341 587.589 353.8 609.289 365 608.089C379 606.589 394.5 594.089 403 586.589Z" fill="#E6A642"/>
<path d="M331.5 574.589L335.5 564.089C322.483 564.089 320.829 562.753 317.153 559.782C315.321 558.302 312.988 556.417 308.5 554.089C285.495 536.963 254.05 531.04 228.126 529.952C213.484 529.338 200.603 530.266 192 531.589C114.727 544.015 109.829 611.627 148.5 646.366C159.624 656.359 174.352 663.632 192 666.089C238.5 672.564 288 647.589 311.5 633.589L325 637.089L323 623.089L338 621.589L331.5 609.589C342.5 607.089 348.5 604.589 333.5 593.589C357.5 593.589 342.333 580.423 331.5 574.589Z" fill="#FFD63E" stroke="black" stroke-width="4"/>
<path d="M192 666.089C238.5 672.564 288 647.589 311.5 633.589C302.667 626.455 288.523 629.478 274.561 632.462C267.975 633.87 261.429 635.269 255.5 635.589C223.966 636.156 198.921 633.228 180.743 631.103C150.786 627.601 139.476 626.279 148.5 646.366C159.624 656.359 174.352 663.632 192 666.089Z" fill="#E6A642"/>
<path d="M331.5 574.589L335.5 564.089C322.483 564.089 320.829 562.753 317.153 559.782C315.321 558.302 312.988 556.417 308.5 554.089C285.495 536.963 254.05 531.04 228.126 529.952C213.484 529.338 200.603 530.266 192 531.589C114.727 544.015 109.829 611.627 148.5 646.366C159.624 656.359 174.352 663.632 192 666.089C238.5 672.564 288 647.589 311.5 633.589L325 637.089L323 623.089L338 621.589L331.5 609.589C342.5 607.089 348.5 604.589 333.5 593.589C357.5 593.589 342.333 580.423 331.5 574.589Z" stroke="black" stroke-width="4"/>
<path d="M466 946.09C466 950.89 474.333 952.756 478.5 953.09C479.925 953.28 482.487 953.596 485.822 954.008L485.842 954.01C489.104 954.413 493.102 954.906 497.5 955.462C501.079 946.58 515.637 942.762 529.012 939.254C541.797 935.901 553.5 932.832 553.5 925.894C545.329 922.402 537.674 919.349 531.693 917.09C501 869.59 420.5 874.59 371 880.09C287.5 907.59 244.5 903.59 178.5 885.59C160.167 880.59 158 905.59 165.15 918.59C168.335 920.83 171.656 922.702 175 924.292C180.975 927.132 187.93 929.298 194 930.974C198.4 934.881 168.5 958.469 153 969.775C172.114 966.291 199.208 960.809 216 957.09C216.678 956.936 217.367 956.782 218.063 956.627L218.075 956.624C233.301 953.218 252.368 948.954 249.5 934.59C267.554 931.749 291.913 927.413 311.457 923.935C317.343 922.887 322.792 921.917 327.5 921.09C376.5 917.09 378.5 917.09 387 917.09C393.8 917.09 350.167 919.756 327.5 921.09C343.5 927.09 426.5 934.923 466 938.09V946.09Z" fill="#E4A747"/>
<path d="M466 938.089C482 938.089 511 934.089 513.5 929.089M531.693 917.089C529.653 919.092 525.926 922.092 523.5 924.089M249.5 934.589C237.967 936.404 228.628 937.589 225.5 937.589M202 933.089C199.684 932.485 196.946 931.787 194 930.974" stroke="black" stroke-width="4"/>
<path d="M530.5 916.589C536.48 918.849 545.329 922.402 553.5 925.894M327.5 921.09C343.5 927.09 426.5 934.923 466 938.09V946.09C466 950.89 474.333 952.756 478.5 953.09C479.925 953.28 482.487 953.596 485.822 954.008L485.842 954.01C489.104 954.413 493.102 954.906 497.5 955.462M327.5 921.09C376.5 917.09 378.5 917.09 387 917.09C393.8 917.09 350.167 919.756 327.5 921.09ZM327.5 921.09C322.792 921.917 317.343 922.887 311.457 923.935C291.913 927.413 267.554 931.749 249.5 934.59C252.368 948.954 233.301 953.218 218.075 956.624L218.063 956.627C217.367 956.782 216.678 956.936 216 957.09C199.208 960.809 172.114 966.291 153 969.775M194 930.974C187.93 929.298 180.975 927.132 175 924.292C171.656 922.702 165.185 918.33 162 916.089" stroke="black" stroke-width="4"/>
<path d="M532 809.089C527.832 802.47 524.439 794.249 521.693 785.089L555 793.589L539 703.589L596 709.589L614.5 576.089L645.98 529.589C730.98 524.589 878 540.089 955.5 582.589L844.5 710.589L676 672.589L629.5 768.089L590.5 758.589V831.089L535.961 819.089L535.646 818.298C534.438 815.268 533.215 812.199 532 809.089Z" fill="#FFD63E" stroke="black" stroke-width="4"/>
<path d="M676 672.589L844.5 710.589C823 681.089 705 619.589 643.5 596.089C631 638.089 620 725.589 617 753.589C610 748.089 545.729 709.852 539 703.589L550.467 768.089L555.5 762.589L561 778.589L564.5 760.089L569 778.589L576 762.589L581 781.589L585 766.089L590.5 780.089L590.5 758.589L629.5 768.089L676 672.589Z" fill="#E4A747"/>
<path d="M521.5 785.089C524.246 794.249 527.639 802.47 531.807 809.089C533.022 812.199 534.245 815.268 535.453 818.298L535.768 819.089L590.307 831.089L590.307 780.089L584.807 766.089L580.807 781.589L575.807 762.589L568.807 778.589L564.307 760.089L560.807 778.589L555.307 762.589L550.274 768.089L554.807 793.589L521.5 785.089Z" fill="#903F22"/>
<path d="M547 465.089C500.5 454.59 463 545.089 509 550.089C516.5 543.589 550 511.089 548 488.589L547.348 485.589C547.348 482.589 547 460.089 547 465.089Z" fill="#EE4E34"/>
<path d="M509 550.089L508.784 552.078L509.651 552.172L510.31 551.601L509 550.089ZM547 465.089L546.559 467.04L549 467.591V465.089H547ZM547.348 485.589H545.348V485.804L545.393 486.014L547.348 485.589ZM548 488.589L549.992 488.412L549.981 488.287L549.954 488.164L548 488.589ZM509.216 548.101C503.814 547.514 499.779 545.692 496.85 543.079C493.917 540.461 491.969 536.937 490.934 532.743C488.849 524.292 490.53 513.305 495.15 502.567C499.755 491.862 507.168 481.676 516.186 474.831C525.187 467.999 535.657 464.579 546.559 467.04L547.44 463.139C535.093 460.35 523.438 464.305 513.767 471.645C504.113 478.972 496.307 489.754 491.475 500.987C486.657 512.186 484.682 524.105 487.05 533.701C488.242 538.531 490.548 542.816 494.187 546.063C497.831 549.315 502.686 551.415 508.784 552.078L509.216 548.101ZM549 465.089C549 464.775 549.001 464.592 549.003 464.509C549.004 464.489 549.004 464.489 549.003 464.5C549.003 464.504 549.002 464.525 549 464.555C548.998 464.57 548.996 464.597 548.991 464.631C548.988 464.657 548.978 464.728 548.958 464.818C548.946 464.864 548.913 464.979 548.89 465.047C548.848 465.155 548.696 465.442 548.575 465.612C548.284 465.909 547.298 466.347 546.626 466.33C546.115 466.156 545.478 465.654 545.316 465.43C545.243 465.304 545.146 465.093 545.117 465.012C545.1 464.959 545.074 464.867 545.064 464.829C545.046 464.754 545.037 464.694 545.033 464.67C545.025 464.616 545.022 464.576 545.021 464.568C545.02 464.554 545.019 464.545 545.019 464.545C545.019 464.544 545.02 464.552 545.021 464.574C545.022 464.594 545.023 464.621 545.024 464.655C545.027 464.724 545.03 464.814 545.033 464.925C545.039 465.148 545.047 465.445 545.055 465.806C545.087 467.253 545.131 469.685 545.174 472.372C545.261 477.754 545.348 484.11 545.348 485.589H549.348C549.348 484.069 549.26 477.675 549.174 472.307C549.13 469.619 549.087 467.176 549.054 465.716C549.038 465.017 549.024 464.477 549.01 464.279C549.009 464.264 549.004 464.176 548.99 464.079C548.985 464.051 548.976 463.988 548.957 463.911C548.948 463.872 548.921 463.779 548.904 463.725C548.874 463.643 548.777 463.432 548.704 463.305C548.542 463.082 547.904 462.579 547.393 462.405C546.721 462.388 545.735 462.826 545.443 463.124C545.322 463.294 545.17 463.581 545.128 463.69C545.104 463.758 545.071 463.874 545.059 463.921C545.025 464.071 545.016 464.197 545.015 464.205C545.011 464.244 545.01 464.278 545.009 464.298C545.006 464.34 545.005 464.382 545.004 464.416C545.001 464.552 545 464.779 545 465.089H549ZM545.393 486.014L546.046 489.014L549.954 488.164L549.302 485.164L545.393 486.014ZM546.008 488.767C546.463 493.888 544.901 499.762 541.996 505.924C539.102 512.06 534.96 518.308 530.479 524.118C521.515 535.74 511.363 545.395 507.69 548.578L510.31 551.601C514.137 548.284 524.485 538.439 533.646 526.561C538.228 520.62 542.554 514.119 545.614 507.63C548.661 501.167 550.537 494.541 549.992 488.412L546.008 488.767Z" fill="black"/>
<path d="M202 477.089C253 477.089 250 378.589 212.5 378.589H212.126C209.275 384.09 206.549 388.811 204.5 392.089C185.884 415.359 188.494 443.827 201.444 477.089H202Z" fill="#EE4E34"/>
<path d="M204.5 484.589C203.427 482.063 202.407 479.563 201.444 477.089M227 337.089C225.615 349.834 218.552 366.193 212.126 378.589M212.126 378.589C209.275 384.09 206.549 388.811 204.5 392.089C185.884 415.359 188.494 443.827 201.444 477.089M212.126 378.589H212.5C250 378.589 253 477.089 202 477.089H201.444" stroke="black" stroke-width="4"/>
<path fill-rule="evenodd" clip-rule="evenodd" d="M2.14064 99.0944L0 98.9435V101.089C0 102.002 0.267602 102.959 0.635168 103.876C1.01285 104.819 1.55263 105.858 2.22097 106.972C3.55785 109.2 5.49522 111.872 7.94012 114.9C12.836 120.962 19.8924 128.604 28.5925 137.221C45.9998 154.464 70.0957 175.723 96.9096 196.24C123.719 216.754 153.295 236.566 181.661 250.883C209.963 265.167 237.333 274.123 259.638 272.585L259.362 268.594C238.167 270.056 211.6 261.512 183.464 247.312C163.181 237.075 142.225 223.972 122.089 209.785C121.52 208.87 120.939 207.716 120.353 206.337C119.094 203.368 117.865 199.481 116.702 194.973C114.379 185.964 112.357 174.636 110.861 163.576C109.366 152.516 108.404 141.775 108.187 133.946C108.078 130.017 108.159 126.891 108.436 124.84C108.487 124.456 108.544 124.129 108.601 123.854C119.767 127.18 131.22 130.951 142.798 135.204C198.872 155.804 257.718 187.66 301.025 234.94L303.975 232.239C260.082 184.319 200.594 152.175 144.177 131.45C87.7522 110.721 34.2422 101.357 2.14064 99.0944ZM105.717 123.003C105.613 123.451 105.53 123.935 105.463 124.439C105.153 126.737 105.078 130.06 105.188 134.029C105.409 141.997 106.384 152.85 107.888 163.978C109.393 175.105 111.434 186.559 113.797 195.722C114.822 199.695 115.916 203.269 117.064 206.211C111.057 201.897 105.136 197.498 99.3404 193.064C72.6544 172.644 48.6877 151.496 31.4075 134.38C22.7638 125.818 15.8203 118.291 11.0521 112.387C8.66493 109.431 6.85426 106.92 5.6511 104.914C5.29532 104.321 5.00018 103.784 4.76196 103.304C29.3692 105.29 65.5762 111.267 105.717 123.003Z" fill="black"/>
<path d="M105.463 124.439C105.53 123.935 105.613 123.451 105.717 123.003C65.5762 111.267 29.3692 105.29 4.76196 103.304C5.00018 103.784 5.29532 104.321 5.6511 104.914C6.85426 106.92 8.66493 109.431 11.0521 112.387C15.8203 118.291 22.7638 125.818 31.4075 134.38C48.6877 151.496 72.6544 172.644 99.3404 193.064C105.136 197.498 111.057 201.897 117.064 206.211C115.916 203.269 114.822 199.695 113.797 195.722C111.434 186.559 109.393 175.105 107.888 163.978C106.384 152.85 105.409 141.997 105.188 134.029C105.078 130.06 105.153 126.737 105.463 124.439Z" fill="black"/>
<path d="M259.362 268.594C238.167 270.056 211.6 261.512 183.464 247.312C163.181 237.075 142.225 223.972 122.089 209.785C121.52 208.87 120.939 207.716 120.353 206.337C119.094 203.368 117.865 199.481 116.702 194.973C115.838 191.621 114.769 186.449 114 182.589L266.5 262.589L259.362 268.594Z" fill="#E4A747"/>
<path d="M581 2.58948C565.229 15.7041 551.498 47.283 540.574 84.5895C560.5 91.0895 591 126.589 599.143 146.589C602.638 79.1418 597.943 16.3697 581 2.58948Z" fill="black"/>
<path d="M515 275.589C507.986 257.888 518.597 159.647 540.574 84.5895M557.5 333.589C578.605 317.144 594.902 228.425 599.143 146.589M540.574 84.5895C551.498 47.283 565.229 15.7041 581 2.58948C597.943 16.3697 602.638 79.1418 599.143 146.589M540.574 84.5895C560.5 91.0895 591 126.589 599.143 146.589" stroke="black" stroke-width="4"/>
<path d="M557.5 333.589L550.5 308.589C565.807 267.453 596.563 182.208 597.712 168.778C597.716 168.715 597.721 168.652 597.726 168.589C597.722 168.651 597.717 168.713 597.712 168.778C591.932 243.798 576.707 318.623 557.5 333.589Z" fill="#E4A747"/>
<ellipse cx="486.039" cy="398.458" rx="28.5" ry="29" transform="rotate(-58.9829 486.039 398.458)" fill="black"/>
<circle cx="482.02" cy="386.707" r="12.5" transform="rotate(-58.9829 482.02 386.707)" fill="white"/>
<ellipse cx="288" cy="352.089" rx="28.5" ry="29" fill="black"/>
<circle cx="296" cy="342.589" r="12.5" fill="white"/>
<path d="M380 385.089L373 385.589C373 388.789 377.667 390.923 380 391.589L386 388.589L380 385.089Z" fill="black" stroke="black" stroke-width="4" stroke-linejoin="round"/>
<path d="M511.152 680.589C511.221 678.461 511.306 676.455 511.404 674.589C536.444 657.126 606.108 592.37 636.491 543.089L521 628.089C473.5 685.589 499 691.089 511.152 680.589Z" fill="#E4A747"/>
<path d="M431 438.505C413.326 438.137 389.131 420.221 375 410.089C344.122 417.555 328.133 419.723 319.5 416.752C319.5 438.089 320.5 541.589 353.5 541.589C384.5 541.589 418 473.589 431 438.505Z" fill="#ED7277"/>
<path d="M410.006 484.59C393 445.59 348.5 436.59 321.294 462.59L320.008 441.589C347 422.089 401.5 425.089 418.162 468.589L410.006 484.59Z" fill="#AF4047"/>
<path d="M431 438.505C413.326 438.137 389.131 420.221 375 410.089C344.122 417.555 328.133 419.723 319.5 416.752C319.5 421.563 319.551 430.552 320.008 441.589C347 422.089 401.5 425.089 418.162 468.589C423.438 457.579 427.829 447.063 431 438.505Z" fill="#7F2622"/>
<path d="M311.5 409.089C313.749 412.785 315.412 415.345 319.5 416.752M442 435.089C438.498 437.591 435.422 438.597 431 438.505M431 438.505C413.326 438.137 389.131 420.221 375 410.089C344.122 417.555 328.133 419.723 319.5 416.752M431 438.505C427.829 447.063 423.438 457.579 418.162 468.589C401.5 425.089 347 422.089 320.008 441.589C319.551 430.552 319.5 421.563 319.5 416.752" stroke="black" stroke-width="4"/>
<path d="M311.5 409.089C313.749 412.785 315.412 415.345 319.5 416.752M442 435.089C438.498 437.591 435.422 438.597 431 438.505M431 438.505C413.326 438.137 389.131 420.221 375 410.089C344.122 417.555 328.133 419.723 319.5 416.752M431 438.505C418 473.589 384.5 541.589 353.5 541.589C320.5 541.589 319.5 438.089 319.5 416.752" stroke="black" stroke-width="4"/>
<path d="M202 933.089C199.684 932.485 196.946 931.787 194 930.974C187.93 929.298 180.975 927.132 175 924.292M192 666.089L141.5 847.589C136.895 887.312 149.357 907.481 165.15 918.589C168.335 920.83 171.656 922.702 175 924.292M192 666.089C113 655.089 92.5 547.589 192 531.589C200.603 530.266 213.484 529.338 228.126 529.952M192 666.089C238.5 672.564 288 647.589 311.5 633.589L325 637.089L323 623.089L338 621.589L331.5 609.589C342.5 607.089 348.5 604.589 333.5 593.589C357.5 593.589 342.333 580.423 331.5 574.589L335.5 564.089C322.483 564.089 320.829 562.753 317.153 559.782C315.321 558.302 312.988 556.417 308.5 554.089C285.495 536.963 254.05 531.04 228.126 529.952M229.5 532.589L228.126 529.952M259.5 270.589C247 282.589 233 313.089 227 337.089C225 355.489 211.167 381.423 204.5 392.089C184.5 417.089 189 448.089 204.5 484.589L228.126 529.952M259.5 270.589C172.5 276.589 2 118.589 2 101.089C65.8333 105.589 215.3 138.389 302.5 233.589C305.218 233.095 308.231 232.479 311.529 231.804C348.281 224.287 420.483 209.519 515 275.589M259.5 270.589C261.833 267.589 265.5 263.589 268.5 261.589M515 275.589C507.971 257.849 518.645 159.21 540.721 84.0895C551.621 47.001 565.3 15.6455 581 2.58948C618.5 33.0895 596 303.589 557.5 333.589M515 275.589L535.5 295.589M557.5 333.589C559.667 349.756 562.7 384.689 557.5 395.089C548.836 420.169 545.578 471.447 547.348 485.589M557.5 333.589L553 326.589M443.5 587.589C469.9 586.789 548 529.089 548 488.589C547.736 487.973 547.518 486.954 547.348 485.589M547.348 485.589C560.898 473.589 586 454.589 656 450.089C659.6 450.089 658.5 454.089 657.5 456.089V463.089M657.5 476.589V463.089M657.5 463.089C658.628 463.825 659.858 464.609 661.137 465.425M503 679.089C504.31 679.089 507.24 677.493 511.404 674.589M511.404 674.589C511.307 676.455 511.221 678.461 511.152 680.589C510.292 706.909 511.797 752.088 521.693 785.089C524.439 794.249 527.832 802.47 532 809.089C533.215 812.199 534.438 815.268 535.646 818.298M511.404 674.589C536.444 657.126 606.108 592.37 636.491 543.089C641.541 534.899 645.506 527.137 648 520.089L664 522.089C663.833 519.923 663.2 514.489 662 510.089C671.2 510.889 668.5 503.423 666 499.589C678.078 495.14 674.8 491.902 671.58 488.721C669.734 486.898 667.907 485.093 669 483.089C688.838 483.089 672.899 472.926 661.143 465.429M523.5 924.089C525.926 922.092 529.653 919.092 531.693 917.089M531.693 917.089C562.616 886.737 550.545 855.689 535.961 819.089M531.693 917.089C537.674 919.349 545.329 922.402 553.5 925.894C576.665 935.793 603.973 949.218 609 958.089C609.961 961.292 608.422 961.717 607 961.417M563 938.089C568 938.089 594.333 953.423 606 961.089C606.299 961.222 606.646 961.342 607 961.417M607 961.417C610.333 964.808 614.1 971.289 602.5 970.089C602.432 970.003 602.362 969.916 602.291 969.829C602.251 969.781 602.21 969.732 602.169 969.683C602.114 969.617 602.057 969.551 602 969.484M556 946.089C567.258 947.068 593.849 960.026 602 969.484M602 969.484C601.667 971.686 598.8 975.489 590 973.089C580 971.089 554.167 964.923 542.5 962.089C531.579 959.905 512.286 957.332 497.5 955.462C493.102 954.906 489.104 954.413 485.842 954.01M466 946.089C466 950.889 474.333 952.756 478.5 953.089C479.925 953.279 482.487 953.596 485.822 954.008M466 946.089C466 941.289 466 938.089 466 938.089M466 946.089V938.089M466 938.089C482 938.089 511 934.089 513.5 929.089M466 938.089C426.5 934.923 343.5 927.089 327.5 921.089M327.5 921.089C376.5 917.089 378.5 917.089 387 917.089C393.8 917.089 350.167 919.756 327.5 921.089ZM327.5 921.089C322.792 921.917 317.343 922.887 311.457 923.935C291.913 927.413 267.554 931.749 249.5 934.589M225.5 937.589C228.628 937.589 237.967 936.404 249.5 934.589M249.5 934.589C252.368 948.954 233.301 953.218 218.075 956.624M162.5 951.089C153.3 951.889 134.333 962.923 126.5 968.089C125.145 969.653 124.42 970.782 124.153 971.589M124.153 971.589H112.5C110.827 970.525 112.254 968.211 115.5 965.309M124.153 971.589C123.386 973.91 126.401 973.577 129.113 973.278C129.985 973.182 130.826 973.089 131.5 973.089C133.855 973.089 142.139 971.755 153 969.775C172.114 966.291 199.208 960.809 216 957.089C216.678 956.936 217.367 956.782 218.063 956.627M151 944.089C139.867 948.96 122.925 958.672 115.5 965.309M115.5 965.309C112.667 964.236 108.5 960.989 114.5 956.589C122 951.089 161 924.494 175 924.292M645.98 529.589L614.5 576.089M535.961 819.089L535.646 818.298M535.961 819.089C535.856 818.826 535.751 818.562 535.646 818.298M218.075 956.624L218.063 956.627M218.075 956.624C218.071 956.625 218.067 956.626 218.063 956.627M485.842 954.01L485.822 954.008M485.842 954.01C485.836 954.009 485.829 954.008 485.822 954.008M661.143 465.429L661.137 465.425M661.143 465.429C661.141 465.428 661.139 465.426 661.137 465.425M523.5 785.089C526.247 794.249 529.639 802.47 533.807 809.089C535.022 812.199 536.245 815.268 537.453 818.298L537.768 819.089L592.307 831.089V758.589L631.307 768.089L677.807 672.589L846.307 710.589L957.307 582.589C879.807 540.089 732.787 524.589 647.787 529.589L616.307 576.089L597.807 709.589L540.807 703.589L556.807 793.589L523.5 785.089Z" stroke="black" stroke-width="4"/>
</svg>
